<svg 
 xmlns="http://www.w3.org/2000/svg"
 xmlns:xlink="http://www.w3.org/1999/xlink"
 width="23px" height="16px">
<path fill-rule="evenodd"  fill="rgb(14, 180, 147)"
 d="M23.000,13.465 C23.000,14.671 22.394,16.011 21.203,16.011 L2.516,16.011 C1.325,16.011 -0.000,14.671 -0.000,13.465 L-0.000,1.829 C-0.000,1.770 0.017,1.720 0.023,1.664 C-0.016,1.454 0.026,1.231 0.175,1.057 C0.202,1.026 0.237,1.011 0.268,0.985 C0.713,0.341 1.647,0.011 2.516,0.011 L21.203,0.011 C22.163,0.011 22.723,0.429 22.912,1.214 C22.983,1.358 23.005,1.512 22.977,1.666 C22.980,1.725 23.000,1.767 23.000,1.829 L23.000,13.465 ZM2.516,14.556 L21.203,14.556 C21.600,14.556 21.562,13.867 21.562,13.465 L21.562,3.046 L11.971,10.810 C11.835,10.929 11.668,10.988 11.500,10.988 C11.332,10.988 11.164,10.929 11.029,10.810 L1.437,3.046 L1.437,13.465 C1.437,13.867 2.119,14.556 2.516,14.556 ZM20.844,1.465 L2.516,1.465 C2.317,1.465 2.047,1.456 1.826,1.497 L11.500,9.298 L21.213,1.465 C21.209,1.465 21.207,1.465 21.203,1.465 L20.844,1.465 Z"/>
</svg>